<svg xmlns="http://www.w3.org/2000/svg" version="1.1" xmlns:xlink="http://www.w3.org/1999/xlink" xmlns:svgjs="http://svgjs.dev/svgjs" width="100%" height="100%" viewBox="0 0 1000 600"><rect width="1000" height="600" x="0" y="0" fill="white"/><g><rect width="333.3333333333333" height="333.3333333333333" y="133.28102491409953" fill="#161b21" transform="matrix(1.1255297216603835,0,0,1.1255297216603835,0,-37.60005994142779)" x="111.0588150024414"/><path d="M227.76680882919538 340.32709553783457L181.0200040607495 224.94768685428852L195.82841810745583 224.94768685428852L233.62706400749622 319.0047824660169L271.33555213556275 224.94768685428852L286.23412395424293 224.94768685428852L239.3295430848428 340.32709553783457L227.76680882919538 340.32709553783457ZM176.1740238171546 340.32709553783457L176.1740238171546 224.94768685428852L189.24690075336414 224.94768685428852L191.38814783774328 295.31582787988543L191.38814783774328 340.32709553783457L176.1740238171546 340.32709553783457ZM275.7758224052753 295.31582787988543L277.9170694896544 224.94768685428852L290.989946425864 224.94768685428852L290.989946425864 340.32709553783457L275.7758224052753 340.32709553783457L275.7758224052753 295.31582787988543ZM333.63457256949926 348.1032033705799L339.7202221777348 331.44655499840945L363.589492307814 254.58705439069468L379.2769446312654 254.58705439069468L344.88175462323824 353.55774857499836Q343.6871641445846 356.7358100370769 341.74877204714664 360.4097392450117Q339.81037994970865 364.10620789593986 336.79009458858434 367.4195060159792Q333.7923486704535 370.755343579012 329.5549333876821 372.8515117774042Q325.3175181049108 374.9476799757964 319.4347234836165 374.9476799757964L319.4347234836165 374.9476799757964Q317.6991863731197 374.9476799757964 315.0169926568974 374.4743516729336Q312.3122594976817 374.00102337007087 311.2078267910019 373.6854711681624L311.2078267910019 373.6854711681624L311.117669019028 361.80718471060646Q311.74877342284503 361.8748030395868 313.1462188884398 362.01003969754765Q314.52112491104117 362.12273691251494 315.0846109858778 362.12273691251494L315.0846109858778 362.12273691251494Q320.088367330427 362.12273691251494 323.55944155142055 360.815449218894Q327.0530552154076 359.50816152527307 329.46477561570833 356.44279727816183Q331.876496016009 353.3999724740441 333.63457256949926 348.1032033705799L333.63457256949926 348.1032033705799ZM306.2040704464527 254.58705439069468L322.2070749718127 254.58705439069468L344.47604464935586 321.14602955039607L348.2852105152514 336.60808744391284L337.75929063730337 341.99501431935096L306.2040704464527 254.58705439069468Z " fill="white" transform="matrix(1.1255297216603835,0,0,1.1255297216603835,0,-37.60005994142779)"/><path d="M620.765979311616 326.51643129473143L620.765979311616 326.51643129473143L640.018687499846 326.51643129473143Q638.5355159060861 340.34985865960783 632.1179465100093 351.302510428912Q625.7003771139327 362.226639667567 613.9490944864501 368.58716400234516Q602.2263343896168 374.9476883371234 584.6849780403404 374.9476883371234L584.6849780403404 374.9476883371234Q571.8498392481872 374.9476883371234 561.3535479692706 370.1559031880529Q550.8857792210033 365.33559550833303 543.3558311296067 356.4650884764226Q535.8544055688593 347.5945814445122 531.7756836860194 335.1017130201496Q527.7254843338288 322.608844595787 527.7254843338288 307.26372310650146L527.7254843338288 307.26372310650146L527.7254843338288 292.7172324753943Q527.7254843338288 277.400633516758 531.7756836860194 264.9077650923954Q535.8544055688593 252.41489666803284 543.526966313502 243.48734457482394Q551.1995270581449 234.55979248161503 562.009566174203 229.76800733254447Q572.8481278209101 224.94769965282467 586.3963298792943 224.94769965282467L586.3963298792943 224.94769965282467Q602.9393976558474 224.94769965282467 614.3484099155394 231.16561133435673Q625.7859447058804 237.38352301588878 632.1464690406586 248.36469731584222Q638.5355159060861 259.34587161579566 640.018687499846 273.77827212430583L640.018687499846 273.77827212430583L620.765979311616 273.77827212430583Q619.3683753098037 263.5386836212324 615.5748787334562 256.17987071373113Q611.7528596264594 248.82105780622987 604.736317086749 244.7993809846885Q597.7197745470385 240.77770416314712 586.3963298792943 240.77770416314712L586.3963298792943 240.77770416314712Q576.6701469279069 240.77770416314712 569.2828114897565 244.485633147547Q561.9239985822552 248.22208466259607 556.9610782492892 255.03896948776193Q551.9981579163233 261.8558543129278 549.4881752191911 271.3823795497705Q546.9781925220589 280.9089047866132 546.9781925220589 292.5175747608497L546.9781925220589 292.5175747608497L546.9781925220589 307.26372310650146Q546.9781925220589 317.9881946306118 549.231472443348 327.4291522755068Q551.4847523646372 336.8415873897526 556.1054023298124 343.97222005206004Q560.7260522949875 351.10285271436743 567.8281624266458 355.1530520665581Q574.9587950889531 359.20325141874866 584.6849780403404 359.20325141874866L584.6849780403404 359.20325141874866Q597.0067112808076 359.20325141874866 604.3370016576597 355.2956647198042Q611.6387695038625 351.3880780208597 615.4037435495609 344.0577876440077Q619.1687175952591 336.7560197978049 620.765979311616 326.51643129473143ZM708.4157159966987 372.95111119167734L713.4356813909632 350.7891048772259L756.4476576100016 226.94427679827075L777.4117176371852 226.94427679827075L723.3615220568951 372.95111119167734L708.4157159966987 372.95111119167734ZM652.2548531483656 226.94427679827075L673.2189131755493 226.94427679827075L715.8315739654985 350.7891048772259L721.1652871969044 372.95111119167734L706.219481136708 372.95111119167734L652.2548531483656 226.94427679827075Z " fill="#161b21" transform="matrix(1.1255297216603835,0,0,1.1255297216603835,0,-37.60005994142779)"/></g></svg>